<svg xmlns="http://www.w3.org/2000/svg" width="24" height="24" viewBox="0 0 24 24" aria-hidden="true">
  <title>Twitter</title>
  <circle cx="12" cy="12" r="11" fill="#1DA1F2"/>
  <path fill="#fff" d="M19 8.6c-.5.2-1 .4-1.6.4.6-.4 1-.9 1.2-1.6-.5.3-1.1.6-1.7.7-.5-.5-1.2-.8-2-.8-1.6 0-2.9 1.3-2.9 2.9 0 .2 0 .4.1.6-2.4-.1-4.5-1.3-5.9-3.1-.3.5-.5 1-.5 1.6 0 1 .5 1.9 1.3 2.4-.5 0-.9-.2-1.3-.4v.1c0 1.4 1 2.6 2.3 2.9-.2 0-.4.1-.7.1-.2 0-.3 0-.5-.1.3 1.1 1.4 2 2.6 2-1 .8-2.3 1.3-3.7 1.3H5c1.3.8 2.9 1.3 4.6 1.3 5.5 0 8.6-4.5 8.6-8.4v-.4c.5-.3 1-.8 1.4-1.3z"/>
</svg>