<svg xmlns="http://www.w3.org/2000/svg" width="24" height="24" viewBox="0 0 24 24" aria-hidden="true">
  <title>WhatsApp</title>
  <defs>
    <linearGradient id="waGrad" x1="0" x2="1" y1="0" y2="1">
      <stop offset="0%" stop-color="#25D366"/>
      <stop offset="100%" stop-color="#1ebe5d"/>
    </linearGradient>
  </defs>
  <circle cx="12" cy="12" r="11" fill="url(#waGrad)"/>
  <path fill="#fff" d="M15.3 14.7c-.2.5-1.2 1-1.6 1.1-.4.1-.9.1-1.4-.1-.5-.2-1.1-.6-1.7-1.1-.6-.5-1.2-1.2-1.6-1.9-.4-.7-.7-1.4-.7-2.1 0-.6.3-1.1.5-1.3.2-.2.4-.3.6-.3h.4c.1 0 .3.2.4.5l.6 1.5c.1.3 0 .5-.1.7l-.3.4c.2.4.7 1 1.4 1.5.7.5 1.3.8 1.8 1l.4-.3c.2-.2.5-.2.7-.1l1.5.6c.3.1.5.3.5.4 0 .2-.1.4-.2.5z"/>
</svg>